<svg width="14" height="8" viewBox="0 0 14 8" fill="none" xmlns="http://www.w3.org/2000/svg">
<path d="M7.41992 7.52448L13.0699 1.86448C13.1637 1.77152 13.238 1.66092 13.2888 1.53906C13.3396 1.4172 13.3657 1.28649 13.3657 1.15448C13.3657 1.02247 13.3396 0.891761 13.2888 0.769902C13.238 0.648043 13.1637 0.537442 13.0699 0.444479C12.8826 0.258228 12.6291 0.153686 12.3649 0.153686C12.1007 0.153686 11.8473 0.258228 11.6599 0.444479L6.65992 5.39448L1.70992 0.444478C1.52256 0.258228 1.26911 0.153686 1.00492 0.153686C0.740739 0.153686 0.487288 0.258227 0.299925 0.444478C0.205437 0.537093 0.130266 0.647538 0.0787697 0.769413C0.0272731 0.891289 0.000474892 1.02217 -7.44303e-05 1.15448C0.00047488 1.28679 0.0272731 1.41767 0.0787696 1.53954C0.130266 1.66142 0.205437 1.77186 0.299925 1.86448L5.94992 7.52448C6.04357 7.62598 6.15722 7.70699 6.28372 7.7624C6.41022 7.81781 6.54682 7.84641 6.68492 7.84641C6.82303 7.84641 6.95963 7.81781 7.08613 7.7624C7.21263 7.70699 7.32628 7.62598 7.41992 7.52448Z" fill="white"/>
</svg>
