<svg width="14" height="8" viewBox="0 0 14 8" fill="none" xmlns="http://www.w3.org/2000/svg">
<path d="M7.41992 7.52436L13.0699 1.86436C13.1637 1.77139 13.238 1.66079 13.2888 1.53893C13.3396 1.41707 13.3657 1.28637 13.3657 1.15436C13.3657 1.02235 13.3396 0.891639 13.2888 0.76978C13.238 0.647921 13.1637 0.53732 13.0699 0.444357C12.8826 0.258106 12.6291 0.153564 12.3649 0.153564C12.1007 0.153564 11.8473 0.258106 11.6599 0.444357L6.65992 5.39436L1.70992 0.444356C1.52256 0.258105 1.26911 0.153564 1.00492 0.153564C0.740739 0.153564 0.487288 0.258105 0.299925 0.444356C0.205437 0.536971 0.130266 0.647416 0.0787697 0.769291C0.0272731 0.891167 0.000474892 1.02205 -7.44303e-05 1.15436C0.00047488 1.28666 0.0272731 1.41755 0.0787696 1.53942C0.130266 1.6613 0.205437 1.77174 0.299925 1.86436L5.94992 7.52436C6.04357 7.62586 6.15722 7.70687 6.28372 7.76228C6.41022 7.81768 6.54682 7.84629 6.68492 7.84629C6.82303 7.84629 6.95963 7.81768 7.08613 7.76228C7.21263 7.70687 7.32628 7.62586 7.41992 7.52436Z" fill="black"/>
</svg>
