<svg width="60" height="32" viewBox="0 0 60 32" fill="none" xmlns="http://www.w3.org/2000/svg">
<path d="M16 32C24.8366 32 32 24.8366 32 16C32 7.16344 24.8366 0 16 0C7.16344 0 0 7.16344 0 16C0 24.8366 7.16344 32 16 32Z" fill="#5C5034"/>
<path fill-rule="evenodd" clip-rule="evenodd" d="M12.6552 14.6247L16.0018 11.2795L19.3498 14.6274L21.296 12.6799L16.0018 7.38452L10.7076 12.6785L12.6552 14.6247ZM7.38477 16.0002L9.33161 14.0534L11.2785 16.0002L9.33161 17.947L7.38477 16.0002ZM16.0018 20.7217L12.6552 17.3751L10.7049 19.3199L10.7076 19.3226L16.0018 24.6153L21.296 19.3199L21.2974 19.3185L19.3498 17.3738L16.0018 20.7217ZM20.7218 16.0007L22.6687 14.0539L24.6155 16.0007L22.6687 17.9475L20.7218 16.0007ZM16.0018 14.0232L17.9766 15.9992H17.9779L17.9766 16.0006L16.0018 17.9767L14.027 16.0033L14.0243 15.9992L14.027 15.9965L14.3727 15.6508L14.5415 15.4834L16.0018 14.0232Z" fill="#F3BA2F"/>
<path d="M44 32C52.8366 32 60 24.8366 60 16C60 7.16344 52.8366 0 44 0C35.1634 0 28 7.16344 28 16C28 24.8366 35.1634 32 44 32Z" fill="#414141"/>
<g clip-path="url(#clip0_708_4600)">
<path fill-rule="evenodd" clip-rule="evenodd" d="M41.3423 16.2915C41.3423 16.2915 42.7658 16.5282 42.4272 17.966C42.3284 18.3844 41.2438 18.2797 41.145 17.4949C41.0462 16.7102 40.9969 16.3962 41.3426 16.2915H41.3423Z" fill="url(#paint0_linear_708_4600)"/>
<path fill-rule="evenodd" clip-rule="evenodd" d="M41.2441 14.722C41.2441 14.722 41.7701 14.7746 41.9356 13.8325C42.101 12.8905 42.2645 12.2809 42.874 13.0478C43.4835 13.8147 43.2516 16.1774 41.296 15.1404C41.0658 15.0184 41.0164 14.7046 41.2466 14.722H41.2441Z" fill="url(#paint1_linear_708_4600)"/>
<path fill-rule="evenodd" clip-rule="evenodd" d="M39.6163 13.8845C39.6163 13.8845 40.0931 14.9486 40.7011 14.8265C40.7011 14.8265 40.8493 15.838 40.1085 15.9253C39.3676 16.0126 39.4839 13.9895 39.6145 13.8845H39.6163Z" fill="url(#paint2_linear_708_4600)"/>
<path fill-rule="evenodd" clip-rule="evenodd" d="M41.5459 7.5H51.6511C51.717 7.53866 51.7666 7.61598 51.7666 7.76167C51.7666 8.19771 51.5859 11.2497 48.5118 11.3194H41.7339L41.7324 11.3158C41.7005 11.3174 41.6691 11.3192 41.6382 11.321C39.0247 11.4788 38.4328 14.8003 38.7289 16.2914C39.7937 21.6588 43.0686 22.9537 43.5124 22.9887C43.9562 23.0237 44.1545 21.6806 44.1545 21.6806C44.1545 21.6806 44.8612 22.7967 46.4721 23.0934C48.0335 23.3809 47.7418 22.5868 47.438 21.7594C47.4283 21.7332 47.4187 21.7069 47.4091 21.6806C47.1104 20.8632 47.4405 20.8911 47.9904 20.9376C48.2134 20.9565 48.4726 20.9784 48.7406 20.9482C49.8703 20.8209 48.7669 19.7003 47.7882 18.7064C47.4227 18.3352 47.0746 17.9817 46.8668 17.7042C46.1024 16.6838 46.1753 14.7219 46.1753 14.7219C46.1753 14.7219 50.8766 14.687 51.8957 14.6693C52.243 14.6633 52.439 14.7101 52.5477 14.7745C52.639 15.3007 52.6848 15.8347 52.6848 16.3698C52.6848 21.4124 48.6554 25.5 43.6848 25.5C38.7141 25.5 34.685 21.4124 34.685 16.3698C34.685 12.0888 37.59 8.49627 41.5092 7.50917V7.5H41.5459Z" fill="url(#paint3_linear_708_4600)"/>
</g>
<defs>
<linearGradient id="paint0_linear_708_4600" x1="41.7758" y1="16.2915" x2="41.7758" y2="18.2077" gradientUnits="userSpaceOnUse">
<stop stop-color="#0B7AE1"/>
<stop offset="0.692708" stop-color="#74EC65"/>
</linearGradient>
<linearGradient id="paint1_linear_708_4600" x1="42.1343" y1="12.7002" x2="42.1343" y2="15.3992" gradientUnits="userSpaceOnUse">
<stop stop-color="#0B7AE1"/>
<stop offset="0.692708" stop-color="#74EC65"/>
</linearGradient>
<linearGradient id="paint2_linear_708_4600" x1="40.1157" y1="13.8845" x2="40.1157" y2="15.9281" gradientUnits="userSpaceOnUse">
<stop stop-color="#0B7AE1"/>
<stop offset="0.692708" stop-color="#74EC65"/>
</linearGradient>
<linearGradient id="paint3_linear_708_4600" x1="37.2197" y1="6.5" x2="37.2197" y2="22" gradientUnits="userSpaceOnUse">
<stop stop-color="#0B7AE1"/>
<stop offset="0.822917" stop-color="#74EC65"/>
</linearGradient>
<clipPath id="clip0_708_4600">
<rect width="18" height="18" fill="white" transform="translate(34.6851 7.5)"/>
</clipPath>
</defs>
</svg>
