<svg width="60" height="32" viewBox="0 0 60 32" fill="none" xmlns="http://www.w3.org/2000/svg">
<path d="M16 32C24.8366 32 32 24.8366 32 16C32 7.16344 24.8366 0 16 0C7.16344 0 0 7.16344 0 16C0 24.8366 7.16344 32 16 32Z" fill="#5C5034"/>
<path fill-rule="evenodd" clip-rule="evenodd" d="M12.6552 14.6247L16.0018 11.2795L19.3498 14.6274L21.296 12.6799L16.0018 7.38452L10.7076 12.6785L12.6552 14.6247ZM7.38477 16.0002L9.33161 14.0534L11.2785 16.0002L9.33161 17.947L7.38477 16.0002ZM16.0018 20.7217L12.6552 17.3751L10.7049 19.3199L10.7076 19.3226L16.0018 24.6153L21.296 19.3199L21.2974 19.3185L19.3498 17.3738L16.0018 20.7217ZM20.7218 16.0007L22.6687 14.0539L24.6155 16.0007L22.6687 17.9475L20.7218 16.0007ZM16.0018 14.0232L17.9766 15.9992H17.9779L17.9766 16.0006L16.0018 17.9767L14.027 16.0033L14.0243 15.9992L14.027 15.9965L14.3727 15.6508L14.5415 15.4834L16.0018 14.0232Z" fill="#F3BA2F"/>
<path d="M44 32C52.8366 32 60 24.8366 60 16C60 7.16344 52.8366 0 44 0C35.1634 0 28 7.16344 28 16C28 24.8366 35.1634 32 44 32Z" fill="#696969"/>
<g clip-path="url(#clip0_708_4601)">
<path fill-rule="evenodd" clip-rule="evenodd" d="M41.6573 16.2915C41.6573 16.2915 43.0807 16.5282 42.7422 17.966C42.6434 18.3844 41.5588 18.2797 41.46 17.4949C41.3612 16.7102 41.3118 16.3962 41.6575 16.2915H41.6573Z" fill="white"/>
<path fill-rule="evenodd" clip-rule="evenodd" d="M41.5591 14.722C41.5591 14.722 42.0851 14.7746 42.2505 13.8325C42.416 12.8905 42.5795 12.2809 43.189 13.0478C43.7984 13.8147 43.5665 16.1774 41.6109 15.1404C41.3807 15.0184 41.3314 14.7046 41.5615 14.722H41.5591Z" fill="white"/>
<path fill-rule="evenodd" clip-rule="evenodd" d="M39.9312 13.8845C39.9312 13.8845 40.4081 14.9486 41.0161 14.8265C41.0161 14.8265 41.1643 15.838 40.4234 15.9253C39.6825 16.0126 39.7989 13.9895 39.9295 13.8845H39.9312Z" fill="white"/>
<path fill-rule="evenodd" clip-rule="evenodd" d="M42.1091 11.3128C42.0562 11.3152 42.0039 11.3181 41.9532 11.321C39.3397 11.4788 38.7478 14.8003 39.0439 16.2914C40.1087 21.6588 43.3836 22.9537 43.8274 22.9887C44.2712 23.0237 44.4695 21.6806 44.4695 21.6806C44.4695 21.6806 45.1762 22.7967 46.7871 23.0934C48.398 23.39 48.0365 22.5353 47.7241 21.6806C47.3042 20.5316 48.1269 21.0529 49.0556 20.9482C50.6073 20.7733 47.9461 18.7246 47.1818 17.7042C46.4174 16.6838 46.4903 14.7219 46.4903 14.7219C46.4903 14.7219 51.1916 14.687 52.2107 14.6693C52.558 14.6633 52.754 14.7101 52.8627 14.7745C52.954 15.3007 52.9998 15.8347 52.9998 16.3698C52.9998 21.4124 48.9704 25.5 43.9998 25.5C39.0291 25.5 35 21.4124 35 16.3698C35 12.0755 37.9232 8.47385 41.8609 7.5C41.9209 8.57115 42.0239 10.2261 42.1372 11.2933L42.1091 11.3128V11.3128Z" fill="white"/>
<path fill-rule="evenodd" clip-rule="evenodd" d="M52.0817 7.76167C52.0817 8.19771 51.9009 11.2497 48.8269 11.3194H42.0489L41.8242 10.7818V7.5H51.9661C52.0321 7.53866 52.0817 7.61598 52.0817 7.76167V7.76167Z" fill="white"/>
</g>
<defs>
<clipPath id="clip0_708_4601">
<rect width="18" height="18" fill="white" transform="translate(35 7.5)"/>
</clipPath>
</defs>
</svg>
