<svg width="19" height="19" viewBox="0 0 19 19" fill="none" xmlns="http://www.w3.org/2000/svg">
<path fill-rule="evenodd" clip-rule="evenodd" d="M6.47089 8.06339L9.96696 4.56888L13.4644 8.06623L15.4975 6.03179L9.96696 0.5L4.43638 6.03037L6.47089 8.06339ZM0.965332 9.50023L2.9991 7.46654L5.03287 9.50023L2.9991 11.5339L0.965332 9.50023ZM9.96707 14.4326L6.47101 10.9366L4.43365 12.9682L4.4365 12.9711L9.96707 18.5L15.4976 12.9682L15.4991 12.9668L13.4646 10.9352L9.96707 14.4326ZM14.8978 9.50074L16.9315 7.46705L18.9653 9.50074L16.9315 11.5344L14.8978 9.50074ZM9.9671 7.43505L12.03 9.49934H12.0315L12.03 9.50076L9.9671 11.5651L7.90415 9.5036L7.90131 9.49934L7.90415 9.4965L8.26527 9.13539L8.44157 8.96052L9.9671 7.43505Z" fill="#F3BA2F"/>
</svg>
