<svg width="14" height="8" viewBox="0 0 14 8" fill="none" xmlns="http://www.w3.org/2000/svg">
<path d="M6.28955 0.460262L0.639548 6.12026C0.54582 6.21323 0.471426 6.32383 0.420657 6.44569C0.369888 6.56754 0.34375 6.69825 0.34375 6.83026C0.34375 6.96227 0.369888 7.09298 0.420657 7.21484C0.471426 7.3367 0.54582 7.4473 0.639548 7.54026C0.826911 7.72651 1.08036 7.83105 1.34455 7.83105C1.60873 7.83105 1.86219 7.72651 2.04955 7.54026L7.04955 2.59026L11.9995 7.54026C12.1869 7.72651 12.4404 7.83105 12.7045 7.83105C12.9687 7.83105 13.2222 7.72651 13.4095 7.54026C13.504 7.44765 13.5792 7.3372 13.6307 7.21533C13.6822 7.09345 13.709 6.96257 13.7095 6.83026C13.709 6.69796 13.6822 6.56707 13.6307 6.4452C13.5792 6.32332 13.504 6.21288 13.4095 6.12026L7.75955 0.460262C7.66591 0.358758 7.55225 0.277749 7.42576 0.222342C7.29926 0.166934 7.16265 0.13833 7.02455 0.13833C6.88645 0.13833 6.74984 0.166934 6.62334 0.222342C6.49684 0.277749 6.38319 0.358758 6.28955 0.460262Z" fill="white"/>
</svg>
