<svg width="32" height="33" viewBox="0 0 32 33" fill="none" xmlns="http://www.w3.org/2000/svg">
<path opacity="0.2" d="M16 32.25C24.8366 32.25 32 25.0866 32 16.25C32 7.41344 24.8366 0.25 16 0.25C7.16344 0.25 0 7.41344 0 16.25C0 25.0866 7.16344 32.25 16 32.25Z" fill="#32A4BE"/>
<path opacity="0.2" d="M16 32.25C24.8366 32.25 32 25.0866 32 16.25C32 7.41344 24.8366 0.25 16 0.25C7.16344 0.25 0 7.41344 0 16.25C0 25.0866 7.16344 32.25 16 32.25Z" fill="#C2A633"/>
<mask id="mask0_74_7156" style="mask-type:alpha" maskUnits="userSpaceOnUse" x="0" y="0" width="32" height="33">
<path d="M16 32.25C24.8366 32.25 32 25.0866 32 16.25C32 7.41344 24.8366 0.25 16 0.25C7.16344 0.25 0 7.41344 0 16.25C0 25.0866 7.16344 32.25 16 32.25Z" fill="white"/>
</mask>
<g mask="url(#mask0_74_7156)">
<path fill-rule="evenodd" clip-rule="evenodd" d="M16.265 9.83203H11.8963V15.6342H9.23096V17.5683H11.8963V23.3705H16.265C18.5709 23.3705 19.0678 23.129 20.0615 22.646C20.1386 22.6085 20.2188 22.5696 20.303 22.5292C21.472 21.9683 22.3804 21.1786 23.0284 20.1599C23.6763 19.1413 24.0003 17.9551 24.0003 16.6013C24.0003 15.2474 23.6763 14.0612 23.0284 13.0426C22.3804 12.024 21.472 11.2342 20.303 10.6733C19.134 10.1125 17.788 9.83203 16.265 9.83203ZM15.143 17.5683V20.7982H16.1049C17.5077 20.7982 18.6265 20.421 19.4615 19.6667C20.2965 18.9124 20.714 17.8906 20.714 16.6012C20.714 15.3118 20.2965 14.29 19.4615 13.5357C18.6265 12.7814 17.5077 12.4043 16.1049 12.4043H15.143V15.6342H18.2488V17.5683H15.143Z" fill="#C2A633"/>
</g>
</svg>
