<svg width="18" height="19" viewBox="0 0 18 19" fill="none" xmlns="http://www.w3.org/2000/svg">
<path d="M9.23031 0.5C5.81362 0.5 2.85342 2.4461 1.40599 5.28619C1.39063 5.31599 1.37561 5.34601 1.36071 5.37604C0.784189 6.53992 0.460449 7.85023 0.460449 9.23578C0.460449 14.0605 4.38683 17.9716 9.23031 17.9716C11.0823 17.9716 12.8002 17.3998 14.2157 16.4238C14.6692 16.111 15.0918 15.7568 15.4777 15.3666C17.0377 13.7895 18.0002 11.6246 18.0002 9.23578C18.0002 4.4111 14.0738 0.5 9.23031 0.5ZM8.69289 17.3636C7.84651 17.3566 6.81522 17.2089 5.77934 16.7426C4.59593 16.21 3.84149 15.4576 3.4516 15.0616C2.09462 13.6836 1.59354 12.238 1.48463 11.9081C1.48463 11.9081 1.15585 10.9274 1.10059 9.12564C1.09692 9.00971 1.08936 8.72416 1.14553 8.70874C1.1461 8.70851 1.14656 8.70839 1.14714 8.70827C1.18726 8.70097 1.24504 8.83128 1.28677 8.94015C1.93998 12.3807 3.38018 14.169 4.19653 14.992C4.35496 15.1517 4.5456 15.3426 4.83667 15.5717C6.46683 16.8548 8.35654 17.0612 9.53227 17.0692H9.53445C9.95827 17.072 10.2891 17.0491 10.4811 17.0415C10.6015 17.0368 10.6674 17.0382 10.6677 17.0557C10.6687 17.1175 9.85498 17.3732 8.69289 17.3636ZM15.8335 14.0181C15.0751 14.8639 14.2719 15.3151 13.8273 15.5601C13.3273 15.8356 11.8331 16.6359 9.83217 16.6151C6.30141 16.5785 4.08773 14.0156 3.87668 13.7631C3.56303 13.3879 2.01747 11.4679 2.00807 8.70248C2.00727 8.48058 2.01369 7.42892 2.4437 6.13449C2.70829 5.33801 3.36562 3.4486 5.26381 2.09992C5.26931 2.09598 5.27493 2.09203 5.28043 2.08821C7.21164 0.724452 9.22343 0.767928 9.83217 0.78984C12.8188 0.897777 14.7528 2.73803 15.3291 3.34043C15.7937 3.82609 17.5563 5.72709 17.6563 8.70248C17.6713 9.14872 17.6943 10.9733 16.7214 12.758C16.4876 13.187 16.1963 13.6135 15.8335 14.0181Z" fill="#209819"/>
<path d="M15.8333 14.0183C15.0749 14.8641 14.2717 15.3153 13.8272 15.5603C13.3271 15.8357 11.8329 16.636 9.83199 16.6153C6.30123 16.5787 4.08756 14.0158 3.87651 13.7633C3.56286 13.3881 2.0173 11.4681 2.0079 8.70265C2.0071 8.48075 2.01352 7.42909 2.44353 6.13466C2.70811 5.33818 3.36545 3.44877 5.26364 2.10009C5.26914 2.09615 5.27476 2.0922 5.28026 2.08838C3.68953 2.74933 2.34138 3.87136 1.40581 5.28636C1.38587 5.31616 1.36638 5.34618 1.34701 5.37621C0.494208 6.70136 0 8.276 0 9.96519C0 14.6789 3.84854 18.5002 8.59607 18.5002C10.7444 18.5002 12.7087 17.7176 14.2155 16.424C14.5908 16.1019 14.9375 15.7481 15.2518 15.3668C15.8857 14.5976 16.387 13.7167 16.7212 12.7582C16.4875 13.1872 16.1962 13.6137 15.8333 14.0183ZM9.53428 17.0694C10.0313 17.0663 10.3765 17.03 10.481 17.0417C10.5026 17.044 10.514 17.0485 10.5141 17.0558C10.515 17.1153 9.771 17.3551 8.69271 17.3638C7.83693 17.3708 6.77056 17.2324 5.69927 16.7428C4.53362 16.2102 3.79053 15.4578 3.40649 15.0617C2.06992 13.6837 1.57628 12.2381 1.4691 11.9083C1.4691 11.9083 1.14524 10.9276 1.09079 9.12581C1.08723 9.00883 1.07967 8.71888 1.13664 8.70844C1.13951 8.70798 1.14238 8.7081 1.14536 8.70891C1.18422 8.71957 1.23604 8.83922 1.27421 8.94032C1.91756 12.3808 3.3361 14.1692 4.14018 14.9922C4.2962 15.1518 4.48398 15.3428 4.77069 15.5719C6.44098 16.9065 8.38789 17.0762 9.5321 17.0694H9.53428Z" fill="#209819"/>
</svg>
