<svg width="18" height="18" viewBox="0 0 18 18" fill="none" xmlns="http://www.w3.org/2000/svg">
<path fill-rule="evenodd" clip-rule="evenodd" d="M6.65778 8.7915C6.65778 8.7915 8.08122 9.02819 7.74265 10.466C7.64386 10.8844 6.55924 10.7797 6.46046 9.99494C6.36168 9.21018 6.31229 8.89617 6.65802 8.7915H6.65778Z" fill="url(#paint0_linear_733_4803)"/>
<path fill-rule="evenodd" clip-rule="evenodd" d="M6.55856 7.22197C6.55856 7.22197 7.08458 7.27457 7.25004 6.33255C7.4155 5.39052 7.57898 4.78091 8.18846 5.54779C8.79795 6.31466 8.56606 8.67735 6.61042 7.64039C6.38026 7.51836 6.33087 7.20462 6.56103 7.22197H6.55856Z" fill="url(#paint1_linear_733_4803)"/>
<path fill-rule="evenodd" clip-rule="evenodd" d="M4.93122 6.38477C4.93122 6.38477 5.40809 7.44881 6.01609 7.32679C6.01609 7.32679 6.16426 8.33824 5.4234 8.42555C4.68254 8.51286 4.79885 6.4897 4.92949 6.38477H4.93122Z" fill="url(#paint2_linear_733_4803)"/>
<path fill-rule="evenodd" clip-rule="evenodd" d="M6.86088 0H16.9661C17.032 0.0386593 17.0816 0.115978 17.0816 0.261674C17.0816 0.697709 16.9009 3.74969 13.8268 3.81939H7.04889L7.04739 3.8158C7.01555 3.81744 6.98408 3.8192 6.95325 3.82096C4.33973 3.97876 3.74778 7.3003 4.04388 8.79145C5.10874 14.1588 8.3836 15.4537 8.82738 15.4887C9.27116 15.5237 9.46946 14.1806 9.46946 14.1806C9.46946 14.1806 10.1762 15.2967 11.7871 15.5934C13.3485 15.8809 13.0568 15.0868 12.753 14.2594C12.7433 14.2332 12.7337 14.2069 12.7241 14.1806C12.4254 13.3632 12.7555 13.3911 13.3054 13.4376C13.5284 13.4565 13.7876 13.4784 14.0556 13.4482C15.1853 13.3209 14.0819 12.2003 13.1032 11.2064C12.7377 10.8352 12.3896 10.4817 12.1818 10.2042C11.4174 9.18383 11.4903 7.22193 11.4903 7.22193C11.4903 7.22193 16.1916 7.18696 17.2107 7.16934C17.558 7.16329 17.754 7.2101 17.8627 7.27453C17.954 7.80073 17.9998 8.33472 17.9998 8.86982C17.9998 13.9124 13.9704 18 8.99975 18C4.02906 18 0 13.9124 0 8.86982C0 4.58884 2.90504 0.996267 6.82416 0.00916668V0H6.86088Z" fill="url(#paint3_linear_733_4803)"/>
<defs>
<linearGradient id="paint0_linear_733_4803" x1="7.0912" y1="8.7915" x2="7.0912" y2="10.7077" gradientUnits="userSpaceOnUse">
<stop stop-color="#0B7AE1"/>
<stop offset="0.692708" stop-color="#74EC65"/>
</linearGradient>
<linearGradient id="paint1_linear_733_4803" x1="7.44878" y1="5.2002" x2="7.44878" y2="7.89922" gradientUnits="userSpaceOnUse">
<stop stop-color="#0B7AE1"/>
<stop offset="0.692708" stop-color="#74EC65"/>
</linearGradient>
<linearGradient id="paint2_linear_733_4803" x1="5.4306" y1="6.38477" x2="5.4306" y2="8.4283" gradientUnits="userSpaceOnUse">
<stop stop-color="#0B7AE1"/>
<stop offset="0.692708" stop-color="#74EC65"/>
</linearGradient>
<linearGradient id="paint3_linear_733_4803" x1="2.53461" y1="-1" x2="2.53461" y2="14.5" gradientUnits="userSpaceOnUse">
<stop stop-color="#0B7AE1"/>
<stop offset="0.822917" stop-color="#74EC65"/>
</linearGradient>
</defs>
</svg>
