<svg width="60" height="32" viewBox="0 0 60 32" fill="none" xmlns="http://www.w3.org/2000/svg">
<path d="M16 32C24.8366 32 32 24.8366 32 16C32 7.16344 24.8366 0 16 0C7.16344 0 0 7.16344 0 16C0 24.8366 7.16344 32 16 32Z" fill="#696969"/>
<g clip-path="url(#clip0_708_4602)">
<path fill-rule="evenodd" clip-rule="evenodd" d="M13.6573 16.2915C13.6573 16.2915 15.0807 16.5282 14.7422 17.966C14.6434 18.3844 13.5588 18.2797 13.46 17.4949C13.3612 16.7102 13.3118 16.3962 13.6575 16.2915H13.6573Z" fill="white"/>
<path fill-rule="evenodd" clip-rule="evenodd" d="M13.5591 14.722C13.5591 14.722 14.0851 14.7746 14.2505 13.8325C14.416 12.8905 14.5795 12.2809 15.189 13.0478C15.7984 13.8147 15.5665 16.1774 13.6109 15.1404C13.3807 15.0184 13.3314 14.7046 13.5615 14.722H13.5591Z" fill="white"/>
<path fill-rule="evenodd" clip-rule="evenodd" d="M11.9312 13.8845C11.9312 13.8845 12.4081 14.9486 13.0161 14.8265C13.0161 14.8265 13.1643 15.838 12.4234 15.9253C11.6825 16.0126 11.7989 13.9895 11.9295 13.8845H11.9312Z" fill="white"/>
<path fill-rule="evenodd" clip-rule="evenodd" d="M14.1091 11.3128C14.0562 11.3152 14.0039 11.3181 13.9532 11.321C11.3397 11.4788 10.7478 14.8003 11.0439 16.2914C12.1087 21.6588 15.3836 22.9537 15.8274 22.9887C16.2712 23.0237 16.4695 21.6806 16.4695 21.6806C16.4695 21.6806 17.1762 22.7967 18.7871 23.0934C20.398 23.39 20.0365 22.5353 19.7241 21.6806C19.3042 20.5316 20.1269 21.0529 21.0556 20.9482C22.6073 20.7733 19.9461 18.7246 19.1818 17.7042C18.4174 16.6838 18.4903 14.7219 18.4903 14.7219C18.4903 14.7219 23.1916 14.687 24.2107 14.6693C24.558 14.6633 24.754 14.7101 24.8627 14.7745C24.954 15.3007 24.9998 15.8347 24.9998 16.3698C24.9998 21.4124 20.9704 25.5 15.9998 25.5C11.0291 25.5 7 21.4124 7 16.3698C7 12.0755 9.9232 8.47385 13.8609 7.5C13.9209 8.57115 14.0239 10.2261 14.1372 11.2933L14.1091 11.3128V11.3128Z" fill="white"/>
<path fill-rule="evenodd" clip-rule="evenodd" d="M24.0817 7.76167C24.0817 8.19771 23.9009 11.2497 20.8269 11.3194H14.0489L13.8242 10.7818V7.5H23.9661C24.0321 7.53866 24.0817 7.61598 24.0817 7.76167V7.76167Z" fill="white"/>
</g>
<path d="M44 32C52.8366 32 60 24.8366 60 16C60 7.16344 52.8366 0 44 0C35.1634 0 28 7.16344 28 16C28 24.8366 35.1634 32 44 32Z" fill="#977C3C"/>
<path d="M44.9053 16.4366H50.7179C50.8418 16.4366 50.9004 16.4366 50.9093 16.271C50.9568 15.6685 50.9568 15.0624 50.9093 14.4592C50.9093 14.342 50.8522 14.2936 50.7276 14.2936H39.1595C39.0163 14.2936 38.9778 14.342 38.9778 14.4788V16.2128C38.9778 16.4366 38.9778 16.4366 39.207 16.4366H44.9053V16.4366ZM50.2602 12.2671C50.2767 12.2229 50.2767 12.1745 50.2602 12.1311C50.1631 11.9157 50.0481 11.7102 49.9146 11.5173C49.7136 11.1876 49.4768 10.8839 49.207 10.611C49.0796 10.4462 48.9323 10.2982 48.7671 10.1726C47.9397 9.45502 46.956 8.94717 45.8986 8.69184C45.3652 8.56979 44.82 8.51157 44.2734 8.51648H39.1395C38.9964 8.51648 38.9771 8.5747 38.9771 8.70166V12.1598C38.9771 12.3057 38.9771 12.345 39.1588 12.345H50.1913C50.1913 12.345 50.287 12.3254 50.3063 12.2671H50.2595H50.2602ZM50.2602 18.4631C50.0977 18.4448 49.9339 18.4448 49.7714 18.4631H39.1691C39.026 18.4631 38.9778 18.4631 38.9778 18.6581V22.0391C38.9778 22.1948 38.9778 22.2341 39.1691 22.2341H44.0641C44.2982 22.2523 44.5322 22.2355 44.7615 22.1857C45.4719 22.1338 46.1706 21.9766 46.8369 21.7178C47.0792 21.6322 47.3133 21.5207 47.5342 21.3867H47.601C48.7485 20.7786 49.6806 19.8232 50.2684 18.6504C50.2684 18.6504 50.3352 18.503 50.2602 18.4645V18.4631ZM37.0565 23.987V23.9288V21.6589V20.8894V18.5998C37.0565 18.4729 37.0565 18.4539 36.9037 18.4539H34.829C34.714 18.4539 34.6665 18.4539 34.6665 18.2982V16.4471H36.8844C37.0083 16.4471 37.0565 16.4471 37.0565 16.2815V14.4501C37.0565 14.3329 37.0565 14.3042 36.9037 14.3042H34.829C34.714 14.3042 34.6665 14.3042 34.6665 14.1484V12.4341C34.6665 12.3268 34.6665 12.298 34.8193 12.298H36.8748C37.018 12.298 37.0565 12.298 37.0565 12.1128V6.86175C37.0565 6.70603 37.0565 6.66675 37.2479 6.66675H44.418C44.9384 6.68779 45.4553 6.74601 45.9668 6.84211C47.0207 7.04062 48.0333 7.42432 48.9591 7.97215C49.5732 8.34041 50.1383 8.78513 50.6415 9.29719C51.0201 9.69772 51.3616 10.1312 51.6644 10.5928C51.9653 11.0606 52.2151 11.5608 52.4113 12.0834C52.4354 12.2194 52.5635 12.3113 52.697 12.2882H54.4083C54.6279 12.2882 54.6279 12.2882 54.6375 12.5028V14.1007C54.6375 14.2565 54.5804 14.2957 54.4269 14.2957H53.1073C52.9737 14.2957 52.9352 14.2957 52.9448 14.4711C52.9971 15.0645 52.9971 15.6601 52.9448 16.2535C52.9448 16.419 52.9448 16.4387 53.1272 16.4387H54.6368C54.7036 16.5264 54.6368 16.614 54.6368 16.7024C54.6465 16.8154 54.6465 16.9297 54.6368 17.0426V18.2218C54.6368 18.3873 54.5893 18.4364 54.4455 18.4364H52.6385C52.5125 18.4119 52.39 18.4939 52.3611 18.6216C51.9308 19.7615 51.2425 20.7835 50.3531 21.6028C50.0282 21.9009 49.6868 22.1815 49.3302 22.4403C48.9474 22.6648 48.575 22.8983 48.1827 23.0835C47.4606 23.4146 46.7034 23.6587 45.9262 23.8137C45.1883 23.9484 44.44 24.0094 43.689 23.9989H37.0538V23.9891L37.0565 23.987Z" fill="#FEDB31"/>
<defs>
<clipPath id="clip0_708_4602">
<rect width="18" height="18" fill="white" transform="translate(7 7.5)"/>
</clipPath>
</defs>
</svg>
