<svg width="14" height="20" viewBox="0 0 14 20" fill="none" xmlns="http://www.w3.org/2000/svg">
<path fill-rule="evenodd" clip-rule="evenodd" d="M4.43611 4.68335V15.316C4.43611 16.6165 2.90625 16.6165 2.90625 15.316V4.68335C2.90625 3.38289 4.43611 3.38289 4.43611 4.68335Z" fill="white" fill-opacity="0.3"/>
<path fill-rule="evenodd" clip-rule="evenodd" d="M6.34871 4.68335V15.316C6.34871 16.6165 4.81885 16.6165 4.81885 15.316V4.68335C4.81885 3.38289 6.34871 3.38289 6.34871 4.68335Z" fill="white" fill-opacity="0.3"/>
<path fill-rule="evenodd" clip-rule="evenodd" d="M8.2613 4.68335V15.316C8.2613 16.6165 6.73145 16.6165 6.73145 15.316V4.68335C6.73145 3.38289 8.2613 3.38289 8.2613 4.68335Z" fill="white" fill-opacity="0.3"/>
<path fill-rule="evenodd" clip-rule="evenodd" d="M10.2499 4.68335V15.316C10.2499 16.6165 8.64355 16.6165 8.64355 15.316V4.68335C8.64355 3.38289 10.2499 3.38289 10.2499 4.68335Z" fill="white" fill-opacity="0.3"/>
<path fill-rule="evenodd" clip-rule="evenodd" d="M0.917871 2.08271H12.239C13.3864 2.08271 13.3864 0.399902 12.239 0.399902H0.917871C-0.305957 0.399902 -0.305957 2.08271 0.917871 2.08271Z" fill="white" fill-opacity="0.3"/>
<path fill-rule="evenodd" clip-rule="evenodd" d="M1.45346 3.23015H11.7035C12.1625 3.23015 12.3919 2.84766 12.4685 2.38867H0.611816C0.688291 2.84766 0.994308 3.23015 1.45329 3.23015H1.45346Z" fill="white" fill-opacity="0.3"/>
<path fill-rule="evenodd" clip-rule="evenodd" d="M1.83594 16.2342C2.14197 16.2342 2.52433 15.9281 2.52433 15.3162V4.68356C2.52433 4.07162 2.14183 3.76562 1.83594 3.76562V16.2342Z" fill="white" fill-opacity="0.3"/>
<path fill-rule="evenodd" clip-rule="evenodd" d="M11.3212 16.2342C10.9387 16.2342 10.6328 15.9281 10.6328 15.3162V4.68356C10.6328 4.07162 10.9388 3.76562 11.3212 3.76562V16.2342Z" fill="white" fill-opacity="0.3"/>
<path fill-rule="evenodd" clip-rule="evenodd" d="M0.917871 17.9937H12.239C13.3864 17.9937 13.3864 19.6 12.239 19.6H0.917871C-0.305957 19.6 -0.305957 17.9937 0.917871 17.9937Z" fill="white" fill-opacity="0.3"/>
<path fill-rule="evenodd" clip-rule="evenodd" d="M1.45346 16.7695H11.7035C12.1625 16.7695 12.3919 17.152 12.4685 17.611H0.611816C0.688291 17.152 0.994308 16.7695 1.45329 16.7695H1.45346Z" fill="white" fill-opacity="0.3"/>
</svg>
