<svg width="14" height="20" viewBox="0 0 14 20" fill="none" xmlns="http://www.w3.org/2000/svg">
<path fill-rule="evenodd" clip-rule="evenodd" d="M4.43587 4.68335V15.316C4.43587 16.6165 2.90601 16.6165 2.90601 15.316V4.68335C2.90601 3.38289 4.43587 3.38289 4.43587 4.68335Z" fill="black" fill-opacity="0.3"/>
<path fill-rule="evenodd" clip-rule="evenodd" d="M6.34895 4.68335V15.316C6.34895 16.6165 4.81909 16.6165 4.81909 15.316V4.68335C4.81909 3.38289 6.34895 3.38289 6.34895 4.68335Z" fill="black" fill-opacity="0.3"/>
<path fill-rule="evenodd" clip-rule="evenodd" d="M8.26106 4.68335V15.316C8.26106 16.6165 6.7312 16.6165 6.7312 15.316V4.68335C6.7312 3.38289 8.26106 3.38289 8.26106 4.68335Z" fill="black" fill-opacity="0.3"/>
<path fill-rule="evenodd" clip-rule="evenodd" d="M10.2497 4.68335V15.316C10.2497 16.6165 8.64331 16.6165 8.64331 15.316V4.68335C8.64331 3.38289 10.2497 3.38289 10.2497 4.68335Z" fill="black" fill-opacity="0.3"/>
<path fill-rule="evenodd" clip-rule="evenodd" d="M0.917871 2.08271H12.239C13.3864 2.08271 13.3864 0.399902 12.239 0.399902H0.917871C-0.305957 0.399902 -0.305957 2.08271 0.917871 2.08271Z" fill="black" fill-opacity="0.3"/>
<path fill-rule="evenodd" clip-rule="evenodd" d="M1.45346 3.23015H11.7035C12.1625 3.23015 12.3919 2.84766 12.4685 2.38867H0.611816C0.688291 2.84766 0.994308 3.23015 1.45329 3.23015H1.45346Z" fill="black" fill-opacity="0.3"/>
<path fill-rule="evenodd" clip-rule="evenodd" d="M1.83569 16.2342C2.14172 16.2342 2.52408 15.9281 2.52408 15.3162V4.68356C2.52408 4.07162 2.14159 3.76562 1.83569 3.76562V16.2342Z" fill="black" fill-opacity="0.3"/>
<path fill-rule="evenodd" clip-rule="evenodd" d="M11.321 16.2342C10.9385 16.2342 10.6326 15.9281 10.6326 15.3162V4.68356C10.6326 4.07162 10.9386 3.76562 11.321 3.76562V16.2342Z" fill="black" fill-opacity="0.3"/>
<path fill-rule="evenodd" clip-rule="evenodd" d="M0.917871 17.9937H12.239C13.3864 17.9937 13.3864 19.6 12.239 19.6H0.917871C-0.305957 19.6 -0.305957 17.9937 0.917871 17.9937Z" fill="black" fill-opacity="0.3"/>
<path fill-rule="evenodd" clip-rule="evenodd" d="M1.45346 16.7695H11.7035C12.1625 16.7695 12.3919 17.152 12.4685 17.611H0.611816C0.688291 17.152 0.994308 16.7695 1.45329 16.7695H1.45346Z" fill="black" fill-opacity="0.3"/>
</svg>
