<svg width="8" height="14" viewBox="0 0 8 14" fill="none" xmlns="http://www.w3.org/2000/svg">
<path d="M7.54022 6.29004L1.88023 0.640037C1.78726 0.546308 1.67666 0.471914 1.5548 0.421146C1.43294 0.370377 1.30224 0.344238 1.17023 0.344238C1.03821 0.344238 0.907509 0.370377 0.785649 0.421146C0.66379 0.471914 0.553189 0.546308 0.460226 0.640037C0.273975 0.827399 0.169433 1.08085 0.169433 1.34504C0.169433 1.60922 0.273975 1.86267 0.460226 2.05004L5.41022 7.05004L0.460224 12C0.273973 12.1874 0.169431 12.4409 0.169431 12.705C0.169431 12.9692 0.273973 13.2227 0.460224 13.41C0.552838 13.5045 0.663283 13.5797 0.785159 13.6312C0.907034 13.6827 1.03792 13.7095 1.17022 13.71C1.30253 13.7095 1.43341 13.6827 1.55529 13.6312C1.67716 13.5797 1.78761 13.5045 1.88022 13.41L7.54022 7.76004C7.64173 7.6664 7.72274 7.55274 7.77815 7.42624C7.83355 7.29974 7.86216 7.16314 7.86216 7.02504C7.86216 6.88694 7.83355 6.75033 7.77815 6.62383C7.72274 6.49733 7.64173 6.38368 7.54022 6.29004Z" fill="white"/>
</svg>
