<svg width="25" height="21" viewBox="0 0 25 21" fill="none" xmlns="http://www.w3.org/2000/svg">
<path d="M18.9727 20.7483C19.0102 20.7405 19.045 20.7278 19.0803 20.716C19.0984 20.7095 19.1175 20.7063 19.1353 20.6984C19.1739 20.6825 19.2095 20.6612 19.2451 20.6402C19.2583 20.6324 19.272 20.627 19.285 20.6186C19.3324 20.5868 19.3767 20.5507 19.4163 20.5107L24.2452 15.6814C24.5849 15.3416 24.5849 14.7909 24.2452 14.4511C23.9056 14.1113 23.3547 14.1113 23.0149 14.4511L19.6704 17.7956L19.6706 1.59596C19.6706 1.11566 19.2812 0.725948 18.8006 0.725948C18.3201 0.725948 17.9306 1.11563 17.9306 1.59596L17.9306 17.7956L14.5855 14.4503C14.246 14.1105 13.6951 14.1105 13.3553 14.4503C13.1857 14.6199 13.1004 14.8427 13.1004 15.0654C13.1004 15.2882 13.1854 15.5104 13.3553 15.6806L18.185 20.5105C18.2251 20.5507 18.2694 20.5865 18.3163 20.6184C18.329 20.6265 18.343 20.6324 18.3562 20.6399C18.3918 20.6615 18.4274 20.6825 18.466 20.6982C18.4835 20.706 18.5026 20.709 18.521 20.7157C18.5566 20.7276 18.5914 20.7405 18.6286 20.7481C18.6847 20.7594 18.7421 20.7656 18.8006 20.7656C18.8589 20.7653 18.9166 20.7591 18.9727 20.7481L18.9727 20.7483ZM7.06992 19.6699L7.06993 3.47022L10.415 6.81557C10.7545 7.15537 11.3055 7.15537 11.6453 6.81557C11.9851 6.47578 11.9851 5.92513 11.6453 5.58532L6.81532 0.755385C6.77513 0.715204 6.7309 0.679334 6.68344 0.647514C6.67157 0.639424 6.65836 0.634299 6.64568 0.627018C6.60982 0.604904 6.57341 0.5836 6.53404 0.56742C6.51705 0.560138 6.49817 0.556902 6.48037 0.550699C6.44477 0.538293 6.40918 0.52508 6.37169 0.517528C6.31533 0.506202 6.25816 0.499999 6.19964 0.499999C6.14139 0.499999 6.08394 0.506202 6.02758 0.517528C5.9901 0.525349 5.9545 0.538293 5.9189 0.550699C5.9011 0.556901 5.88249 0.559868 5.86523 0.56742C5.82586 0.583601 5.78972 0.605174 5.75359 0.627018C5.74118 0.634299 5.7277 0.639424 5.71583 0.647514C5.66837 0.679336 5.62414 0.715473 5.58396 0.755385L0.754846 5.5845C0.58522 5.75412 0.5 5.97688 0.5 6.19964C0.5 6.42239 0.584951 6.6446 0.754846 6.81477C1.09437 7.15457 1.64529 7.15457 1.98509 6.81477L5.32962 3.47025L5.32962 19.6699C5.32962 20.1502 5.71904 20.5399 6.19963 20.5399C6.67966 20.5397 7.06985 20.15 7.06985 19.6697L7.06992 19.6699Z" fill="white" fill-opacity="0.3"/>
</svg>
