<svg width="18" height="22" viewBox="0 0 18 22" fill="none" xmlns="http://www.w3.org/2000/svg">
<path d="M9.43988 12.1098L9.26988 11.9998C9.08682 11.9245 8.88552 11.9052 8.69148 11.9444C8.49744 11.9835 8.31939 12.0794 8.17988 12.2198C8.08337 12.3086 8.00817 12.418 7.95988 12.5398C7.90734 12.6632 7.88014 12.7958 7.87988 12.9298C7.88146 13.0605 7.90864 13.1896 7.95988 13.3098C8.06733 13.5501 8.25959 13.7424 8.49988 13.8498C8.6201 13.9011 8.7492 13.9283 8.87988 13.9298C9.01369 13.9273 9.1459 13.9002 9.26988 13.8498C9.3899 13.7981 9.49861 13.7234 9.58988 13.6298C9.77613 13.4425 9.88067 13.189 9.88067 12.9248C9.88067 12.6607 9.77613 12.4072 9.58988 12.2198L9.43988 12.1098ZM8.87988 4.99984C8.40275 4.99447 7.93243 5.11335 7.51514 5.34478C7.09786 5.57621 6.74798 5.91224 6.49988 6.31984C6.42753 6.43366 6.37894 6.56093 6.35706 6.69401C6.33517 6.8271 6.34042 6.96323 6.37251 7.09422C6.4046 7.22522 6.46285 7.34837 6.54377 7.45627C6.62468 7.56417 6.72659 7.65459 6.84335 7.72208C6.96012 7.78958 7.08933 7.83275 7.22321 7.84902C7.3571 7.86528 7.49289 7.85429 7.62242 7.81671C7.75195 7.77914 7.87253 7.71575 7.97693 7.63036C8.08132 7.54497 8.16737 7.43934 8.22988 7.31984C8.30366 7.21726 8.40154 7.13442 8.51489 7.07861C8.62825 7.02281 8.7536 6.99575 8.87988 6.99984C9.07879 6.99984 9.26956 7.07886 9.41021 7.21951C9.55086 7.36016 9.62988 7.55093 9.62988 7.74984C9.62988 7.94875 9.55086 8.13952 9.41021 8.28017C9.26956 8.42082 9.07879 8.49984 8.87988 8.49984C8.61466 8.49984 8.36031 8.6052 8.17277 8.79273C7.98524 8.98027 7.87988 9.23462 7.87988 9.49984C7.87988 9.76505 7.98524 10.0194 8.17277 10.2069C8.36031 10.3945 8.61466 10.4998 8.87988 10.4998C9.60923 10.4998 10.3087 10.2101 10.8244 9.69438C11.3401 9.17866 11.6299 8.47918 11.6299 7.74984C11.6299 7.02049 11.3401 6.32102 10.8244 5.80529C10.3087 5.28957 9.60923 4.99984 8.87988 4.99984ZM17.4599 8.67984C17.3273 7.21445 16.8166 5.80857 15.9777 4.59975C15.1388 3.39092 14.0005 2.42056 12.6742 1.78358C11.3478 1.14661 9.87885 0.864846 8.41094 0.965856C6.94303 1.06687 5.52649 1.54719 4.29988 2.35984C3.24908 3.06248 2.36693 3.98914 1.71682 5.07323C1.06672 6.15732 0.664776 7.37194 0.539881 8.62984C0.417363 9.8795 0.574555 11.1408 1.00005 12.3221C1.42555 13.5035 2.10868 14.5753 2.99988 15.4598L8.29988 20.7698C8.39284 20.8636 8.50344 20.938 8.6253 20.9887C8.74716 21.0395 8.87787 21.0656 9.00988 21.0656C9.14189 21.0656 9.2726 21.0395 9.39446 20.9887C9.51632 20.938 9.62692 20.8636 9.71988 20.7698L14.9999 15.4598C15.8911 14.5753 16.5742 13.5035 16.9997 12.3221C17.4252 11.1408 17.5824 9.8795 17.4599 8.62984V8.67984ZM13.5999 14.0498L8.99988 18.6498L4.39988 14.0498C3.72197 13.3719 3.20268 12.5522 2.87935 11.6496C2.55601 10.747 2.43667 9.78403 2.52988 8.82984C2.6237 7.86094 2.93164 6.925 3.43145 6.08968C3.93126 5.25436 4.61044 4.54054 5.41988 3.99984C6.48083 3.29507 7.72619 2.91913 8.99988 2.91913C10.2736 2.91913 11.5189 3.29507 12.5799 3.99984C13.3869 4.53846 14.0646 5.24912 14.5642 6.08078C15.0639 6.91243 15.3732 7.84444 15.4699 8.80984C15.5661 9.76727 15.4483 10.7341 15.1249 11.6404C14.8014 12.5467 14.2805 13.3697 13.5999 14.0498Z" fill="#74EC65"/>
</svg>
