<svg width="20" height="20" viewBox="0 0 20 20" fill="none" xmlns="http://www.w3.org/2000/svg">
<path d="M3.14009 2.68457H16.8533C17.1065 2.68457 17.3153 2.89336 17.3153 3.14019V14.569C17.3153 14.8221 17.1065 15.0246 16.8533 15.0246H3.14009C2.89326 15.0246 2.68446 14.8221 2.68446 14.569V12.7275C2.48826 12.7022 2.33639 12.5376 2.33639 12.3351V9.92396C2.33639 9.72146 2.48827 9.55055 2.68446 9.53156V8.18372C2.48826 8.15841 2.33639 7.99381 2.33639 7.79132V5.38021C2.33639 5.17771 2.48827 5.00681 2.68446 4.98781V3.13998C2.68446 2.89315 2.89326 2.68436 3.14009 2.68436V2.68457ZM1.31115 16.8535V18.6824H2.68446V16.8535C2.68446 16.6004 2.89326 16.3979 3.14009 16.3979H16.8533C17.1065 16.3979 17.3153 16.6004 17.3153 16.8535V18.6824H18.6821V1.31122H1.31094V16.8536L1.31115 16.8535ZM0.399902 19.138V0.855525C0.399902 0.602401 0.602401 0.399902 0.855525 0.399902H19.138C19.3912 0.399902 19.6 0.602401 19.6 0.855525V19.138C19.6 19.3912 19.3912 19.6 19.138 19.6H16.8535C16.6004 19.6 16.3979 19.3912 16.3979 19.138V17.3155H3.60209V19.138C3.60209 19.3912 3.39329 19.6 3.14015 19.6H0.855594C0.602469 19.6 0.399971 19.3912 0.399971 19.138H0.399902ZM3.60202 9.53187C3.79193 9.56348 3.93737 9.72178 3.93737 9.92427V12.3354C3.93737 12.5316 3.79179 12.6961 3.60202 12.7214V14.1135H16.3978V3.60222H3.60202V4.98812C3.79193 5.01973 3.93737 5.18433 3.93737 5.38052V7.79163C3.93737 7.98784 3.79179 8.15231 3.60202 8.17762V9.5319V9.53187ZM5.89285 7.02593C5.89285 6.7728 6.09535 6.5703 6.34847 6.5703C6.6016 6.5703 6.8041 6.7728 6.8041 7.02593V10.6835C6.8041 10.9367 6.6016 11.1391 6.34847 11.1391C6.09535 11.1391 5.89285 10.9367 5.89285 10.6835V7.02593ZM12.7401 6.5703C13.3729 6.5703 13.9425 6.82972 14.3537 7.24114H14.36C14.7713 7.65887 15.0245 8.22833 15.0245 8.85483C15.0245 9.48764 14.7713 10.0572 14.36 10.4685L14.3537 10.4748C13.9425 10.8861 13.3729 11.1392 12.7401 11.1392C12.1135 11.1392 11.5441 10.8861 11.1264 10.4748V10.4685C10.7086 10.0572 10.4555 9.48764 10.4555 8.85483C10.4555 8.22833 10.7086 7.65884 11.1264 7.24114C11.5441 6.82985 12.1135 6.5703 12.7401 6.5703ZM13.7082 7.88657C13.4614 7.63974 13.1197 7.48786 12.7401 7.48786C12.3604 7.48786 12.0186 7.63973 11.7719 7.88657C11.5251 8.1334 11.3732 8.47505 11.3732 8.85473C11.3732 9.23441 11.5251 9.5762 11.7719 9.82289V9.82918C12.0187 10.076 12.3604 10.2279 12.7401 10.2279C13.1197 10.2279 13.4615 10.076 13.7082 9.82918L13.7145 9.82289C13.9613 9.57606 14.1132 9.23441 14.1132 8.85473C14.1132 8.47505 13.9613 8.13325 13.7145 7.88657H13.7082Z" fill="#74EC65"/>
</svg>
