<svg width="32" height="32" viewBox="0 0 32 32" fill="none" xmlns="http://www.w3.org/2000/svg">
<path opacity="0.2" d="M31.9132 16.0001C31.9132 24.7901 24.7877 31.9159 15.9977 31.9159C7.20769 31.9159 0.0820312 24.7901 0.0820312 16.0001C0.0820312 7.21013 7.20769 0.0844727 15.9977 0.0844727C24.7876 0.0844727 31.9132 7.21013 31.9132 16.0001Z" fill="#505050"/>
<g opacity="0.8">
<path d="M15.9469 8.61523L15.8486 8.94937V18.6451L15.9469 18.7433L20.4476 16.0829L15.9469 8.61523Z" fill="white"/>
<path d="M15.947 8.61523L11.4463 16.0829L15.947 18.7433V14.0373V8.61523Z" fill="white"/>
<path d="M15.947 20.2073L15.8916 20.2749V23.7287L15.947 23.8905L20.4504 17.5483L15.947 20.2073Z" fill="white"/>
<path d="M15.947 23.8905V20.2073L11.4463 17.5483L15.947 23.8905Z" fill="white"/>
<path d="M15.9473 18.7431L20.4479 16.0828L15.9473 14.0371V18.7431Z" fill="white"/>
<path d="M11.4463 16.0828L15.9469 18.7431V14.0371L11.4463 16.0828Z" fill="white"/>
</g>
</svg>
